<svg xmlns="http://www.w3.org/2000/svg" xmlns:xlink="http://www.w3.org/1999/xlink" width="1200" height="345" viewBox="0 0 1200 345" role="img"><defs><linearGradient id="sky" x1="0" y1="0" x2="0" y2="1"><stop offset="0" stop-color="#091728"/><stop offset="1" stop-color="#183658"/></linearGradient><linearGradient id="water" x1="0" y1="0" x2="0" y2="1"><stop offset="0" stop-color="#0d2a42"/><stop offset="1" stop-color="#091728"/></linearGradient></defs><rect x="0" y="0" width="1200" height="345" fill="url(#sky)" opacity="1" /><rect x="1079" y="116" width="2" height="2" fill="#fff1bc" opacity="0.78" /><rect x="579" y="38" width="2" height="2" fill="#fff1bc" opacity="0.36" /><rect x="869" y="74" width="4" height="4" fill="#fff1bc" opacity="0.69" /><rect x="137" y="45" width="2" height="2" fill="#fff1bc" opacity="0.31" /><rect x="1101" y="153" width="2" height="2" fill="#fff1bc" opacity="0.41" /><rect x="262" y="27" width="2" height="2" fill="#fff1bc" opacity="0.46" /><rect x="1048" y="131" width="4" height="4" fill="#fff1bc" opacity="0.3" /><rect x="846" y="139" width="2" height="2" fill="#fff1bc" opacity="0.23" /><rect x="772" y="156" width="2" height="2" fill="#fff1bc" opacity="0.74" /><rect x="736" y="22" width="3" height="3" fill="#fff1bc" opacity="0.44" /><rect x="20" y="113" width="2" height="2" fill="#fff1bc" opacity="0.29" /><rect x="746" y="24" width="2" height="2" fill="#fff1bc" opacity="0.26" /><rect x="1147" y="146" width="4" height="4" fill="#fff1bc" opacity="0.74" /><rect x="202" y="157" width="4" height="4" fill="#fff1bc" opacity="0.67" /><rect x="696" y="12" width="2" height="2" fill="#fff1bc" opacity="0.66" /><rect x="722" y="14" width="3" height="3" fill="#fff1bc" opacity="0.65" /><rect x="980" y="23" width="2" height="2" fill="#fff1bc" opacity="0.4" /><rect x="163" y="134" width="2" height="2" fill="#fff1bc" opacity="0.58" /><rect x="1085" y="45" width="3" height="3" fill="#fff1bc" opacity="0.5" /><rect x="444" y="22" width="4" height="4" fill="#fff1bc" opacity="0.4" /><rect x="340" y="117" width="2" height="2" fill="#fff1bc" opacity="0.62" /><rect x="993" y="29" width="4" height="4" fill="#fff1bc" opacity="0.27" /><rect x="553" y="157" width="2" height="2" fill="#fff1bc" opacity="0.68" /><rect x="110" y="134" width="4" height="4" fill="#fff1bc" opacity="0.45" /><rect x="1006" y="66" width="4" height="4" fill="#fff1bc" opacity="0.46" /><rect x="921" y="29" width="3" height="3" fill="#fff1bc" opacity="0.66" /><rect x="479" y="133" width="2" height="2" fill="#fff1bc" opacity="0.7" /><rect x="755" y="17" width="4" height="4" fill="#fff1bc" opacity="0.55" /><rect x="875" y="23" width="2" height="2" fill="#fff1bc" opacity="0.78" /><rect x="356" y="152" width="2" height="2" fill="#fff1bc" opacity="0.58" /><rect x="631" y="121" width="2" height="2" fill="#fff1bc" opacity="0.48" /><rect x="201" y="142" width="2" height="2" fill="#fff1bc" opacity="0.52" /><rect x="403" y="157" width="4" height="4" fill="#fff1bc" opacity="0.66" /><rect x="930" y="128" width="3" height="3" fill="#fff1bc" opacity="0.72" /><rect x="290" y="147" width="4" height="4" fill="#fff1bc" opacity="0.5" /><rect x="34" y="85" width="2" height="2" fill="#fff1bc" opacity="0.33" /><rect x="26" y="129" width="2" height="2" fill="#fff1bc" opacity="0.66" /><rect x="442" y="23" width="2" height="2" fill="#fff1bc" opacity="0.28" /><rect x="41" y="17" width="2" height="2" fill="#fff1bc" opacity="0.49" /><rect x="63" y="126" width="4" height="4" fill="#fff1bc" opacity="0.7" /><rect x="464" y="17" width="3" height="3" fill="#fff1bc" opacity="0.68" /><rect x="886" y="24" width="4" height="4" fill="#fff1bc" opacity="0.25" /><rect x="1113" y="77" width="2" height="2" fill="#fff1bc" opacity="0.43" /><rect x="1123" y="116" width="3" height="3" fill="#fff1bc" opacity="0.75" /><rect x="1086" y="96" width="2" height="2" fill="#fff1bc" opacity="0.66" /><rect x="78" y="82" width="2" height="2" fill="#fff1bc" opacity="0.41" /><rect x="508" y="136" width="2" height="2" fill="#fff1bc" opacity="0.48" /><rect x="871" y="89" width="2" height="2" fill="#fff1bc" opacity="0.5" /><rect x="272" y="64" width="4" height="4" fill="#fff1bc" opacity="0.79" /><rect x="1181" y="48" width="2" height="2" fill="#fff1bc" opacity="0.27" /><rect x="906" y="145" width="3" height="3" fill="#fff1bc" opacity="0.67" /><rect x="325" y="153" width="2" height="2" fill="#fff1bc" opacity="0.32" /><rect x="1105" y="91" width="3" height="3" fill="#fff1bc" opacity="0.69" /><rect x="668" y="148" width="3" height="3" fill="#fff1bc" opacity="0.66" /><rect x="273" y="83" width="2" height="2" fill="#fff1bc" opacity="0.51" /><rect x="1038" y="58" width="2" height="2" fill="#fff1bc" opacity="0.22" /><rect x="260" y="95" width="3" height="3" fill="#fff1bc" opacity="0.26" /><rect x="187" y="141" width="3" height="3" fill="#fff1bc" opacity="0.36" /><rect x="154" y="85" width="2" height="2" fill="#fff1bc" opacity="0.39" /><rect x="957" y="92" width="2" height="2" fill="#fff1bc" opacity="0.78" /><rect x="676" y="157" width="4" height="4" fill="#fff1bc" opacity="0.59" /><rect x="903" y="36" width="2" height="2" fill="#fff1bc" opacity="0.36" /><rect x="446" y="149" width="2" height="2" fill="#fff1bc" opacity="0.71" /><rect x="903" y="106" width="2" height="2" fill="#fff1bc" opacity="0.77" /><rect x="656" y="13" width="2" height="2" fill="#fff1bc" opacity="0.72" /><rect x="133" y="100" width="3" height="3" fill="#fff1bc" opacity="0.45" /><rect x="342" y="116" width="2" height="2" fill="#fff1bc" opacity="0.33" /><rect x="787" y="28" width="3" height="3" fill="#fff1bc" opacity="0.6" /><rect x="737" y="138" width="2" height="2" fill="#fff1bc" opacity="0.76" /><rect x="1001" y="123" width="2" height="2" fill="#fff1bc" opacity="0.3" /><rect x="902" y="110" width="2" height="2" fill="#fff1bc" opacity="0.62" /><rect x="785" y="134" width="2" height="2" fill="#fff1bc" opacity="0.71" /><rect x="158" y="42" width="15" height="2" fill="#fff1bc" opacity="0.68" /><rect x="165" y="36" width="2" height="14" fill="#fff1bc" opacity="0.68" /><rect x="165" y="42" width="2" height="2" fill="#fff1bc"><animate attributeName="opacity" values="1;.22;1" dur="2.0s" repeatCount="indefinite"/></rect><rect x="473" y="34" width="15" height="2" fill="#fff1bc" opacity="0.68" /><rect x="480" y="28" width="2" height="14" fill="#fff1bc" opacity="0.68" /><rect x="480" y="34" width="2" height="2" fill="#fff1bc"><animate attributeName="opacity" values="1;.22;1" dur="2.7s" repeatCount="indefinite"/></rect><rect x="803" y="48" width="15" height="2" fill="#fff1bc" opacity="0.68" /><rect x="810" y="42" width="2" height="14" fill="#fff1bc" opacity="0.68" /><rect x="810" y="48" width="2" height="2" fill="#fff1bc"><animate attributeName="opacity" values="1;.22;1" dur="3.4s" repeatCount="indefinite"/></rect><rect x="997" y="78" width="15" height="2" fill="#fff1bc" opacity="0.68" /><rect x="1004" y="72" width="2" height="14" fill="#fff1bc" opacity="0.68" /><rect x="1004" y="78" width="2" height="2" fill="#fff1bc"><animate attributeName="opacity" values="1;.22;1" dur="4.1s" repeatCount="indefinite"/></rect><circle cx="235" cy="77" r="37" fill="#fff1bc" opacity="0.12"/><circle cx="235" cy="77" r="27" fill="#fff1bc"/><circle cx="226" cy="69" r="4" fill="#c2d0d1" opacity=".3"/><circle cx="244" cy="87" r="6" fill="#c2d0d1" opacity=".3"/><circle cx="242" cy="63" r="3" fill="#c2d0d1" opacity=".3"/><path d="M0 194 L65 151 L112 184 L181 123 L245 193 L333 104 L414 183 L493 138 L575 189 L664 126 L746 197 L850 141 L940 206 L1047 160 L1135 201 L1200 156 L1200 256 L0 256Z" fill="#29456b"/><path d="M0 234 L124 164 L192 207 L308 155 L384 219 L500 172 L619 227 L733 174 L831 224 L930 173 L1070 225 L1200 177 L1200 278 L0 278Z" fill="#19395a"/><path d="M285 155 L333 104 L375 146 L344 139 L329 119 L313 150 Z M160 141 L181 123 L205 150 L185 141 Z M640 156 L664 126 L695 156 L667 145Z" fill="#a0bed1" opacity=".56"/><rect x="0" y="240" width="1200" height="105" fill="url(#water)" opacity="1" /><rect x="491" y="229" width="5" height="2" fill="#FFD388" opacity="0.28" /><rect x="1094" y="227" width="5" height="2" fill="#FFD388" opacity="0.85" /><rect x="1112" y="227" width="3" height="2" fill="#FFD388" opacity="0.54" /><rect x="68" y="232" width="5" height="2" fill="#FFD388" opacity="0.28" /><rect x="455" y="229" width="5" height="2" fill="#FFD388" opacity="0.28" /><rect x="86" y="227" width="5" height="2" fill="#FFD388" opacity="0.54" /><rect x="122" y="226" width="5" height="2" fill="#FFD388" opacity="0.85" /><rect x="599" y="241" width="5" height="2" fill="#FFD388" opacity="0.85" /><rect x="869" y="240" width="5" height="2" fill="#FFD388" opacity="0.85" /><rect x="77" y="248" width="7" height="2" fill="#FFD388" opacity="0.28" /><rect x="653" y="241" width="7" height="2" fill="#FFD388" opacity="0.28" /><rect x="131" y="232" width="5" height="2" fill="#FFD388" opacity="0.85" /><rect x="806" y="239" width="3" height="2" fill="#FFD388" opacity="0.85" /><rect x="248" y="225" width="5" height="2" fill="#FFD388" opacity="0.54" /><rect x="1103" y="238" width="5" height="2" fill="#FFD388" opacity="0.54" /><rect x="842" y="231" width="3" height="2" fill="#FFD388" opacity="0.85" /><rect x="266" y="235" width="7" height="2" fill="#FFD388" opacity="0.28" /><rect x="878" y="227" width="7" height="2" fill="#FFD388" opacity="0.85" /><rect x="185" y="225" width="7" height="2" fill="#FFD388" opacity="0.54" /><rect x="257" y="245" width="7" height="2" fill="#FFD388" opacity="0.54" /><rect x="329" y="244" width="3" height="2" fill="#FFD388" opacity="0.85" /><rect x="1022" y="225" width="7" height="2" fill="#FFD388" opacity="0.54" /><rect x="41" y="242" width="3" height="2" fill="#FFD388" opacity="0.28" /><rect x="320" y="239" width="3" height="2" fill="#FFD388" opacity="0.54" /><rect x="689" y="233" width="7" height="2" fill="#FFD388" opacity="0.54" /><rect x="41" y="237" width="3" height="2" fill="#FFD388" opacity="0.54" /><rect x="5" y="244" width="5" height="2" fill="#FFD388" opacity="0.28" /><rect x="752" y="241" width="5" height="2" fill="#FFD388" opacity="0.85" /><rect x="1058" y="248" width="3" height="2" fill="#FFD388" opacity="0.54" /><rect x="212" y="241" width="7" height="2" fill="#FFD388" opacity="0.54" /><rect x="689" y="243" width="3" height="2" fill="#FFD388" opacity="0.85" /><rect x="356" y="248" width="3" height="2" fill="#FFD388" opacity="0.85" /><rect x="743" y="245" width="3" height="2" fill="#FFD388" opacity="0.28" /><rect x="464" y="233" width="7" height="2" fill="#FFD388" opacity="0.54" /><rect x="194" y="227" width="5" height="2" fill="#FFD388" opacity="0.28" /><rect x="1130" y="240" width="5" height="2" fill="#FFD388" opacity="0.54" /><rect x="608" y="242" width="3" height="2" fill="#FFD388" opacity="0.85" /><rect x="1157" y="247" width="5" height="2" fill="#FFD388" opacity="0.85" /><rect x="302" y="248" width="7" height="2" fill="#FFD388" opacity="0.28" /><rect x="761" y="231" width="7" height="2" fill="#FFD388" opacity="0.54" /><rect x="1085" y="234" width="3" height="2" fill="#FFD388" opacity="0.85" /><rect x="230" y="230" width="7" height="2" fill="#FFD388" opacity="0.54" /><rect x="482" y="238" width="5" height="2" fill="#FFD388" opacity="0.54" /><rect x="1004" y="243" width="3" height="2" fill="#FFD388" opacity="0.28" /><rect x="284" y="231" width="3" height="2" fill="#FFD388" opacity="0.54" /><rect x="122" y="232" width="7" height="2" fill="#FFD388" opacity="0.54" /><rect x="986" y="236" width="7" height="2" fill="#FFD388" opacity="0.28" /><rect x="32" y="224" width="7" height="2" fill="#FFD388" opacity="0.85" /><rect x="743" y="246" width="7" height="2" fill="#FFD388" opacity="0.54" /><rect x="401" y="235" width="7" height="2" fill="#FFD388" opacity="0.85" /><rect x="734" y="243" width="3" height="2" fill="#FFD388" opacity="0.54" /><rect x="1022" y="238" width="3" height="2" fill="#FFD388" opacity="0.28" /><rect x="59" y="228" width="5" height="2" fill="#FFD388" opacity="0.85" /><rect x="356" y="246" width="5" height="2" fill="#FFD388" opacity="0.85" /><rect x="14" y="224" width="3" height="2" fill="#FFD388" opacity="0.54" /><rect x="869" y="245" width="7" height="2" fill="#FFD388" opacity="0.54" /><rect x="230" y="232" width="3" height="2" fill="#FFD388" opacity="0.28" /><rect x="329" y="246" width="3" height="2" fill="#FFD388" opacity="0.85" /><rect x="1076" y="234" width="3" height="2" fill="#FFD388" opacity="0.54" /><rect x="509" y="237" width="7" height="2" fill="#FFD388" opacity="0.54" /><rect x="599" y="246" width="7" height="2" fill="#FFD388" opacity="0.54" /><rect x="1085" y="226" width="3" height="2" fill="#FFD388" opacity="0.28" /><rect x="572" y="239" width="3" height="2" fill="#FFD388" opacity="0.54" /><rect x="239" y="232" width="7" height="2" fill="#FFD388" opacity="0.85" /><rect x="590" y="234" width="5" height="2" fill="#FFD388" opacity="0.54" /><rect x="1175" y="236" width="3" height="2" fill="#FFD388" opacity="0.54" /><rect x="617" y="247" width="3" height="2" fill="#FFD388" opacity="0.85" /><rect x="491" y="230" width="3" height="2" fill="#FFD388" opacity="0.28" /><rect x="824" y="227" width="7" height="2" fill="#FFD388" opacity="0.28" /><rect x="437" y="235" width="5" height="2" fill="#FFD388" opacity="0.28" /><rect x="482" y="240" width="3" height="2" fill="#FFD388" opacity="0.28" /><rect x="23" y="239" width="3" height="2" fill="#FFD388" opacity="0.85" /><rect x="1058" y="237" width="5" height="2" fill="#FFD388" opacity="0.54" /><rect x="1076" y="242" width="3" height="2" fill="#FFD388" opacity="0.28" /><rect x="203" y="226" width="7" height="2" fill="#FFD388" opacity="0.28" /><rect x="653" y="248" width="7" height="2" fill="#FFD388" opacity="0.54" /><rect x="77" y="228" width="5" height="2" fill="#FFD388" opacity="0.28" /><rect x="770" y="247" width="3" height="2" fill="#FFD388" opacity="0.85" /><rect x="742" y="295" width="12" height="2" fill="#183658" opacity="0.23" /><rect x="984" y="292" width="25" height="2" fill="#183658" opacity="0.35" /><rect x="894" y="282" width="23" height="2" fill="#183658" opacity="0.12" /><rect x="920" y="294" width="22" height="2" fill="#183658" opacity="0.23" /><rect x="680" y="335" width="21" height="2" fill="#183658" opacity="0.12" /><rect x="721" y="272" width="6" height="2" fill="#183658" opacity="0.23" /><rect x="54" y="293" width="7" height="2" fill="#183658" opacity="0.12" /><rect x="787" y="330" width="21" height="2" fill="#183658" opacity="0.12" /><rect x="477" y="266" width="10" height="2" fill="#183658" opacity="0.23" /><rect x="1056" y="331" width="15" height="2" fill="#183658" opacity="0.23" /><rect x="321" y="311" width="11" height="2" fill="#183658" opacity="0.23" /><rect x="508" y="308" width="12" height="2" fill="#183658" opacity="0.12" /><rect x="1177" y="279" width="25" height="2" fill="#183658" opacity="0.35" /><rect x="196" y="307" width="12" height="2" fill="#fff1bc" opacity="0.7" /><rect x="1013" y="290" width="14" height="2" fill="#183658" opacity="0.35" /><rect x="1134" y="277" width="19" height="2" fill="#183658" opacity="0.23" /><rect x="333" y="339" width="13" height="2" fill="#183658" opacity="0.23" /><rect x="610" y="263" width="20" height="2" fill="#183658" opacity="0.35" /><rect x="585" y="312" width="26" height="2" fill="#183658" opacity="0.23" /><rect x="63" y="321" width="18" height="2" fill="#183658" opacity="0.12" /><rect x="733" y="256" width="25" height="2" fill="#183658" opacity="0.12" /><rect x="162" y="316" width="8" height="2" fill="#183658" opacity="0.23" /><rect x="785" y="288" width="16" height="2" fill="#183658" opacity="0.35" /><rect x="663" y="284" width="12" height="2" fill="#183658" opacity="0.12" /><rect x="96" y="318" width="18" height="2" fill="#183658" opacity="0.12" /><rect x="111" y="305" width="16" height="2" fill="#183658" opacity="0.35" /><rect x="496" y="332" width="13" height="2" fill="#183658" opacity="0.35" /><rect x="604" y="319" width="23" height="2" fill="#183658" opacity="0.23" /><rect x="1136" y="262" width="13" height="2" fill="#183658" opacity="0.12" /><rect x="796" y="256" width="23" height="2" fill="#183658" opacity="0.35" /><rect x="501" y="325" width="26" height="2" fill="#183658" opacity="0.12" /><rect x="959" y="259" width="7" height="2" fill="#183658" opacity="0.23" /><rect x="797" y="259" width="14" height="2" fill="#183658" opacity="0.12" /><rect x="1095" y="287" width="11" height="2" fill="#183658" opacity="0.35" /><rect x="1094" y="256" width="18" height="2" fill="#183658" opacity="0.23" /><rect x="240" y="288" width="26" height="2" fill="#fff1bc" opacity="0.7" /><rect x="618" y="336" width="21" height="2" fill="#183658" opacity="0.35" /><rect x="1135" y="303" width="23" height="2" fill="#183658" opacity="0.35" /><rect x="490" y="333" width="14" height="2" fill="#183658" opacity="0.12" /><rect x="157" y="327" width="10" height="2" fill="#183658" opacity="0.35" /><rect x="980" y="333" width="14" height="2" fill="#183658" opacity="0.35" /><rect x="274" y="276" width="6" height="2" fill="#183658" opacity="0.12" /><rect x="460" y="280" width="16" height="2" fill="#183658" opacity="0.12" /><rect x="1112" y="291" width="5" height="2" fill="#183658" opacity="0.23" /><rect x="182" y="310" width="19" height="2" fill="#fff1bc" opacity="0.7" /><rect x="384" y="267" width="15" height="2" fill="#183658" opacity="0.35" /><rect x="1052" y="305" width="21" height="2" fill="#183658" opacity="0.35" /><rect x="54" y="321" width="19" height="2" fill="#183658" opacity="0.23" /><rect x="448" y="333" width="8" height="2" fill="#183658" opacity="0.12" /><rect x="96" y="289" width="24" height="2" fill="#183658" opacity="0.23" /><rect x="440" y="278" width="23" height="2" fill="#183658" opacity="0.35" /><rect x="452" y="304" width="8" height="2" fill="#183658" opacity="0.35" /><rect x="593" y="340" width="11" height="2" fill="#183658" opacity="0.12" /><rect x="573" y="272" width="22" height="2" fill="#183658" opacity="0.23" /><rect x="341" y="320" width="7" height="2" fill="#183658" opacity="0.23" /><rect x="223" y="335" width="14" height="2" fill="#fff1bc" opacity="0.4" /><rect x="1172" y="307" width="15" height="2" fill="#183658" opacity="0.23" /><rect x="458" y="320" width="12" height="2" fill="#183658" opacity="0.35" /><rect x="539" y="293" width="17" height="2" fill="#183658" opacity="0.23" /><rect x="653" y="276" width="24" height="2" fill="#183658" opacity="0.12" /><rect x="867" y="336" width="15" height="2" fill="#183658" opacity="0.35" /><rect x="501" y="289" width="11" height="2" fill="#183658" opacity="0.12" /><rect x="743" y="322" width="26" height="2" fill="#183658" opacity="0.23" /><rect x="648" y="314" width="17" height="2" fill="#183658" opacity="0.23" /><rect x="1125" y="306" width="25" height="2" fill="#183658" opacity="0.23" /><rect x="375" y="282" width="24" height="2" fill="#183658" opacity="0.12" /><rect x="588" y="328" width="18" height="2" fill="#183658" opacity="0.35" /><rect x="749" y="285" width="15" height="2" fill="#183658" opacity="0.12" /><rect x="1173" y="316" width="12" height="2" fill="#183658" opacity="0.12" /><rect x="399" y="279" width="11" height="2" fill="#183658" opacity="0.35" /><rect x="241" y="270" width="18" height="2" fill="#fff1bc" opacity="0.7" /><rect x="688" y="342" width="12" height="2" fill="#183658" opacity="0.12" /><rect x="306" y="320" width="16" height="2" fill="#183658" opacity="0.12" /><rect x="558" y="257" width="16" height="2" fill="#183658" opacity="0.12" /><rect x="895" y="329" width="25" height="2" fill="#183658" opacity="0.35" /><rect x="234" y="287" width="7" height="2" fill="#fff1bc" opacity="0.4" /><rect x="906" y="299" width="12" height="2" fill="#183658" opacity="0.23" /><rect x="481" y="296" width="20" height="2" fill="#183658" opacity="0.12" /><rect x="928" y="259" width="10" height="2" fill="#183658" opacity="0.12" /><rect x="908" y="340" width="6" height="2" fill="#183658" opacity="0.12" /><rect x="180" y="298" width="18" height="2" fill="#183658" opacity="0.35" /><rect x="391" y="329" width="16" height="2" fill="#183658" opacity="0.35" /><rect x="771" y="290" width="5" height="2" fill="#183658" opacity="0.12" /><rect x="935" y="317" width="25" height="2" fill="#183658" opacity="0.35" /><rect x="401" y="258" width="15" height="2" fill="#183658" opacity="0.35" /><rect x="506" y="272" width="7" height="2" fill="#183658" opacity="0.35" /><rect x="396" y="335" width="6" height="2" fill="#183658" opacity="0.35" /><rect x="924" y="315" width="12" height="2" fill="#183658" opacity="0.35" /><rect x="152" y="297" width="12" height="2" fill="#183658" opacity="0.12" /><rect x="96" y="257" width="5" height="2" fill="#183658" opacity="0.35" /><rect x="337" y="328" width="15" height="2" fill="#183658" opacity="0.12" /><rect x="465" y="296" width="5" height="2" fill="#183658" opacity="0.35" /><rect x="165" y="316" width="9" height="2" fill="#183658" opacity="0.35" /><rect x="402" y="273" width="7" height="2" fill="#183658" opacity="0.23" /><rect x="1096" y="262" width="26" height="2" fill="#183658" opacity="0.35" /><rect x="733" y="284" width="11" height="2" fill="#183658" opacity="0.23" /><rect x="616" y="328" width="25" height="2" fill="#183658" opacity="0.23" /><rect x="435" y="325" width="11" height="2" fill="#183658" opacity="0.35" /><rect x="550" y="312" width="9" height="2" fill="#183658" opacity="0.12" /><rect x="916" y="313" width="17" height="2" fill="#183658" opacity="0.23" /><rect x="250" y="341" width="8" height="2" fill="#fff1bc" opacity="0.7" /><rect x="860" y="276" width="25" height="2" fill="#183658" opacity="0.35" /><rect x="600" y="292" width="26" height="2" fill="#183658" opacity="0.12" /><rect x="163" y="280" width="10" height="2" fill="#183658" opacity="0.35" /><rect x="1102" y="257" width="10" height="2" fill="#183658" opacity="0.23" /><rect x="419" y="272" width="16" height="2" fill="#183658" opacity="0.12" /><rect x="765" y="262" width="17" height="2" fill="#183658" opacity="0.23" /><rect x="580" y="259" width="13" height="2" fill="#183658" opacity="0.35" /><rect x="1053" y="293" width="10" height="2" fill="#183658" opacity="0.35" /><rect x="1111" y="286" width="7" height="2" fill="#183658" opacity="0.35" /><rect x="120" y="329" width="21" height="2" fill="#183658" opacity="0.35" /><rect x="619" y="300" width="20" height="2" fill="#183658" opacity="0.35" /><rect x="910" y="307" width="6" height="2" fill="#183658" opacity="0.12" /><rect x="546" y="318" width="20" height="2" fill="#183658" opacity="0.12" /><rect x="585" y="261" width="14" height="2" fill="#183658" opacity="0.12" /><rect x="1181" y="324" width="10" height="2" fill="#183658" opacity="0.23" /><rect x="672" y="262" width="22" height="2" fill="#183658" opacity="0.12" /><rect x="987" y="281" width="7" height="2" fill="#183658" opacity="0.35" /><rect x="1119" y="322" width="13" height="2" fill="#183658" opacity="0.23" /><rect x="690" y="256" width="16" height="2" fill="#183658" opacity="0.23" /><rect x="1050" y="337" width="5" height="2" fill="#183658" opacity="0.35" /><rect x="676" y="309" width="24" height="2" fill="#183658" opacity="0.23" /><rect x="656" y="270" width="13" height="2" fill="#183658" opacity="0.12" /><rect x="1081" y="283" width="17" height="2" fill="#183658" opacity="0.12" /><rect x="1080" y="295" width="9" height="2" fill="#183658" opacity="0.12" /><path d="M0 286 L95 269 L171 284 L260 280 L345 308 L402 313 L500 330 L602 316 L704 333 L780 315 L881 316 L950 297 L1035 296 L1100 282 L1200 283 L1200 345 L0 345Z" fill="#102B41"/><rect x="16" y="226" width="4" height="48" fill="#071b26" opacity="1" /><path d="M18 214.0 L6 233.0 H30Z" fill="#071b26"/><path d="M18 226.0 L4 245.0 H32Z" fill="#071b26"/><path d="M18 238.0 L2 257.0 H34Z" fill="#071b26"/><path d="M18 250.0 L0 269.0 H36Z" fill="#071b26"/><rect x="42" y="221" width="4" height="53" fill="#071b26" opacity="1" /><path d="M44 209.0 L32 229.25 H56Z" fill="#071b26"/><path d="M44 222.25 L30 242.5 H58Z" fill="#071b26"/><path d="M44 235.5 L28 255.75 H60Z" fill="#071b26"/><path d="M44 248.75 L26 269.0 H62Z" fill="#071b26"/><rect x="88" y="232" width="4" height="42" fill="#071b26" opacity="1" /><path d="M90 220.0 L78 237.5 H102Z" fill="#071b26"/><path d="M90 230.5 L76 248.0 H104Z" fill="#071b26"/><path d="M90 241.0 L74 258.5 H106Z" fill="#071b26"/><path d="M90 251.5 L72 269.0 H108Z" fill="#071b26"/><rect x="116" y="224" width="4" height="50" fill="#071b26" opacity="1" /><path d="M118 212.0 L106 231.5 H130Z" fill="#071b26"/><path d="M118 224.5 L104 244.0 H132Z" fill="#071b26"/><path d="M118 237.0 L102 256.5 H134Z" fill="#071b26"/><path d="M118 249.5 L100 269.0 H136Z" fill="#071b26"/><rect x="758" y="235" width="4" height="39" fill="#071b26" opacity="1" /><path d="M760 223.0 L748 239.75 H772Z" fill="#071b26"/><path d="M760 232.75 L746 249.5 H774Z" fill="#071b26"/><path d="M760 242.5 L744 259.25 H776Z" fill="#071b26"/><path d="M760 252.25 L742 269.0 H778Z" fill="#071b26"/><rect x="799" y="219" width="4" height="55" fill="#071b26" opacity="1" /><path d="M801 207.0 L789 227.75 H813Z" fill="#071b26"/><path d="M801 220.75 L787 241.5 H815Z" fill="#071b26"/><path d="M801 234.5 L785 255.25 H817Z" fill="#071b26"/><path d="M801 248.25 L783 269.0 H819Z" fill="#071b26"/><rect x="838" y="226" width="4" height="48" fill="#071b26" opacity="1" /><path d="M840 214.0 L828 233.0 H852Z" fill="#071b26"/><path d="M840 226.0 L826 245.0 H854Z" fill="#071b26"/><path d="M840 238.0 L824 257.0 H856Z" fill="#071b26"/><path d="M840 250.0 L822 269.0 H858Z" fill="#071b26"/><rect x="896" y="234" width="4" height="40" fill="#071b26" opacity="1" /><path d="M898 222.0 L886 239.0 H910Z" fill="#071b26"/><path d="M898 232.0 L884 249.0 H912Z" fill="#071b26"/><path d="M898 242.0 L882 259.0 H914Z" fill="#071b26"/><path d="M898 252.0 L880 269.0 H916Z" fill="#071b26"/><rect x="1158" y="190" width="4" height="84" fill="#071b26" opacity="1" /><path d="M1160 178.0 L1148 206.0 H1172Z" fill="#071b26"/><path d="M1160 199.0 L1146 227.0 H1174Z" fill="#071b26"/><path d="M1160 220.0 L1144 248.0 H1176Z" fill="#071b26"/><path d="M1160 241.0 L1142 269.0 H1178Z" fill="#071b26"/><rect x="1190" y="177" width="4" height="97" fill="#071b26" opacity="1" /><path d="M1192 165.0 L1180 196.25 H1204Z" fill="#071b26"/><path d="M1192 189.25 L1178 220.5 H1206Z" fill="#071b26"/><path d="M1192 213.5 L1176 244.75 H1208Z" fill="#071b26"/><path d="M1192 237.75 L1174 269.0 H1210Z" fill="#071b26"/><path d="M906 250 L948 208 L1060 208 L1095 252Z" fill="#071b26"/><rect x="937" y="234" width="130" height="75" fill="#684c3d" opacity="1" /><rect x="946" y="242" width="110" height="57" fill="#302c32" opacity="1" /><rect x="965" y="250" width="64" height="42" fill="#e6a666" opacity="1" /><rect x="969" y="254" width="56" height="34" fill="#172737" opacity="1" /><rect x="981" y="262" width="32" height="17" fill="#092a2e" opacity="1" /><text x="988" y="276" font-family="'DejaVu Sans Mono','SFMono-Regular',monospace" font-size="16" font-weight="bold" fill="#71f6bc" >&gt;_</text><rect x="1028" y="279" width="32" height="5" fill="#846445" opacity="1" /><rect x="1081" y="285" width="6" height="27" fill="#071b26" opacity="1" /><rect x="1069" y="299" width="35" height="5" fill="#071b26" opacity="1" /><rect x="1050" y="274" width="19" height="25" fill="#283346" opacity="1" /><rect x="1057" y="258" width="14" height="16" fill="#182333" opacity="1" /><rect x="1051" y="260" width="10" height="11" fill="#1f2a3f" opacity="1" /><rect x="1044" y="294" width="14" height="7" fill="#121f2c" opacity="1" /><rect x="1117" y="272" width="5" height="44" fill="#141b29" opacity="1" /><rect x="1110" y="274" width="20" height="26" fill="#ffcf85" opacity="0.24" /><rect x="1114" y="278" width="12" height="17" fill="#ffd58c" opacity="1" /><rect x="34" y="273" width="306" height="60" rx="0" fill="#071b2f" opacity=".75"/><text x="47" y="294" font-family="'DejaVu Sans Mono','SFMono-Regular',monospace" font-size="15" font-weight="bold" fill="#85eee0" >A QUIETER WORLD</text><text x="47" y="315" font-family="'DejaVu Sans Mono','SFMono-Regular',monospace" font-size="15" font-weight="normal" fill="#85eee0" >A BRIGHTER YOU  &gt;_</text><rect x="380" y="44" width="500" height="124" fill="#071b2f" opacity=".64"/><rect x="389" y="53" width="482" height="106" fill="none" stroke="#70d5d4" stroke-width="2" opacity=".5"/><text x="628" y="108" font-family="'DejaVu Sans Mono','SFMono-Regular',monospace" font-size="56" font-weight="bold" fill="#EEF9FF" text-anchor="middle" letter-spacing="2">FUXIU OS</text><text x="628" y="143" font-family="'DejaVu Sans Mono','SFMono-Regular',monospace" font-size="19" font-weight="bold" fill="#70d5d4" text-anchor="middle" >C++ EDITION  //  FLOATING LIFE</text><text x="1157" y="330" font-family="'DejaVu Sans Mono','SFMono-Regular',monospace" font-size="13" font-weight="normal" fill="#a2ebe3" text-anchor="end" >v1.0</text></svg>